<svg width="131" height="77" viewBox="0 0 131 77" fill="none" xmlns="http://www.w3.org/2000/svg">
<path d="M0 16.85C3.04494 6.84097 12.2766 0 22.7386 0H131C125.093 10.4145 114.044 16.85 102.07 16.85H0Z" fill="url(#paint0_linear_5_17)"/>
<path d="M51.6712 38.8548C51.6712 29.5462 59.2149 22 68.5236 22C72.0161 22 75.9266 22 80.1329 22C96.6406 22 115 22 115 22C111.144 32.1468 101.418 38.8548 90.5636 38.8548H80.1329C69.0179 38.8548 62.7862 38.8548 51.6712 38.8548Z" fill="url(#paint1_linear_5_17)"/>
<path d="M48.2646 38.6936C47.9269 29.4728 55.4646 22 64.6915 22H83.7945C67.4855 23.7176 65.162 35.3544 67.647 52.6672C69.1249 62.9639 63.4668 73.1142 53.5061 76.1129L51.2116 77C51.0836 69.8894 49.0103 59.0554 48.2646 38.6936Z" fill="url(#paint2_linear_5_17)"/>
<defs>
<linearGradient id="paint0_linear_5_17" x1="8.18712" y1="8.425" x2="121.442" y2="8.425" gradientUnits="userSpaceOnUse">
<stop stop-color="#479C2B"/>
<stop offset="0.471" stop-color="#5EC83B"/>
<stop offset="1" stop-color="#69DB43"/>
</linearGradient>
<linearGradient id="paint1_linear_5_17" x1="51.6712" y1="30.4274" x2="108.595" y2="30.4274" gradientUnits="userSpaceOnUse">
<stop stop-color="#142A0D"/>
<stop offset="0.231" stop-color="#365D29"/>
<stop offset="0.421" stop-color="#479C2B"/>
<stop offset="0.761" stop-color="#5DC83A"/>
</linearGradient>
<linearGradient id="paint2_linear_5_17" x1="61.0025" y1="22.3815" x2="61.0025" y2="78.6553" gradientUnits="userSpaceOnUse">
<stop stop-color="#3E8826"/>
<stop offset="0.176" stop-color="#65D53F"/>
<stop offset="0.381" stop-color="#65D53F"/>
<stop offset="0.666" stop-color="#44922A"/>
<stop offset="1" stop-color="#224A14"/>
</linearGradient>
</defs>
</svg>
