<svg width="30" height="30" viewBox="0 0 30 30" fill="none" xmlns="http://www.w3.org/2000/svg">
<path d="M30 15.3406C30 14.3179 29.9147 13.299 29.7364 12.2906H15.302V18.0664H23.5683C23.2266 19.9298 22.1237 21.5783 20.5122 22.6229V26.3752H25.4472C28.3364 23.7693 30 19.9079 30 15.3406Z" fill="#4285F4"/>
<path d="M15.3021 30C19.4317 30 22.9113 28.6716 25.4474 26.3788L20.5124 22.6265C19.1383 23.54 17.3707 24.0605 15.3021 24.0605C11.3103 24.0605 7.92348 21.4221 6.70925 17.8699H1.6293V21.7348C4.22863 26.8047 9.51668 30 15.3021 30Z" fill="#34A853"/>
<path d="M6.71297 17.8697C6.07065 16.01 6.07065 13.9901 6.71297 12.1269V8.2655H1.62943C-0.543142 12.5052 -0.543142 17.4985 1.62943 21.7384L6.71297 17.8697Z" fill="#FBBC04"/>
<path d="M15.3021 5.94016C17.4858 5.9074 19.5913 6.71184 21.1732 8.18943L25.544 3.9094C22.7738 1.36199 19.1049 -0.0392347 15.3021 0.000836337C9.51668 0.000836337 4.22503 3.19971 1.6293 8.26579L6.71284 12.1308C7.92348 8.57502 11.3103 5.94016 15.3021 5.94016Z" fill="#EA4335"/>
</svg>
